<?xml version="1.0" encoding="UTF-8"?>
<!-- Generator: Adobe Illustrator 19.2.0, SVG Export Plug-In . SVG Version: 6.00 Build 0)  -->
<!DOCTYPE svg PUBLIC "-//W3C//DTD SVG 1.1//EN" "http://www.w3.org/Graphics/SVG/1.1/DTD/svg11.dtd">
<svg xmlns="http://www.w3.org/2000/svg" xmlns:xlink="http://www.w3.org/1999/xlink" xmlns:dc="http://purl.org/dc/elements/1.1/" xmlns:cc="http://creativecommons.org/ns#" xmlns:rdf="http://www.w3.org/1999/02/22-rdf-syntax-ns#" version="1.1" id="DESIGNS" x="0px" y="0px" width="32px" height="32px" viewBox="0 0 32 32" style="enable-background:new 0 0 32 32;" xml:space="preserve">
<title property="dc:title">to snow</title><desc property="dc:description">An icon for "snow" from the Hatch series on to [icon]. Downloaded from http://www.toicon.com/icons/hatch_snow by 127.0.0.1 on 2017-07-10. Licensed CC-BY, see http://toicon.com/license/ for details.</desc>
<g>
	<path class="hatch_twee" d="M13.138,6.405l-0.518,1.932l-2.529,2.529l-0.237-0.402L9.243,10.3L13.138,6.405z M12.476,4.482   L11.36,4.183l-1,1L9.901,6.898l-0.56,0.323L8.538,7.006L6.089,9.455l1.115,0.299L12.476,4.482z M17.409,7.548l2.449-2.449L19.559,4   L17.11,6.433L17.409,7.548z M13.252,10.333l-2.182,2.182l0.524,0.89l2.176-2.176L13.252,10.333z M4,12.02l-2,2.121l0.396,0.42   l2.074-2.074L4,12.02z M6.477,14.481l-0.709-0.705l-2.116,2.116L4,16.262v0.647L6.477,14.481z M13.062,26.481l-2.449,2.449   l0.064,0.24l1.516-0.406l1.167-1.167L13.062,26.481z M22.562,26.395l1.81-1.81l0.203-0.756l-0.679-0.182l-2.449,2.449   L22.562,26.395z M12.453,24.207l1.524-2.64l-4.475,4.475l0.399,0.23l0.166,0.619l2.449-2.449L12.453,24.207z M6.418,6.54l0.08-0.08   L6.443,6.445L6.418,6.54z M24.272,19.272l0.707,0.707l2.016-2.016l-0.686-0.728L24.272,19.272z M21.543,18h1.414l4.469-4.469   l-0.686-0.728L21.543,18z M15.427,20.116l0.518,0.896l2.222-2.222L17.719,18h1.239l3-3h-1.414L15.427,20.116z M20.001,27.543   l-1.376,1.376l0.94,0.252L20.001,27.543z M21.332,10.212l1.932-0.518l1.108-1.108l-0.299-1.115L21.332,10.212z M19.103,20.441   l-2.211,2.211l0.518,0.896l2.205-2.205L19.103,20.441z M21.857,23.101l-1.115-0.299l-3.519,3.519l-0.518,1.932L21.857,23.101z    M22.042,6.916l-1.14,0.306l-0.367-0.212l-3.824,3.824l-1.589,2.753l-0.426-0.738L9.543,18h1.414L22.042,6.916z M17.957,15h-0.239   l1.679-2.855l-8.211,8.211l-1.332,2.349l-1.39,0.373L6.1,25.444l0.299,1.115L17.957,15z M10.012,14.987H8.598l-5.311,5.311   L3.999,21L10.012,14.987z" style="fill: #FFC5BB;"/>
	<path class="hatch_een" d="M20.341,6.898l0.561,0.324l2.897-0.776l0.776,2.897l-4.188,1.123L17.719,15H23l3-2.981l2,2.121l-2,2.121   v0.647l2,2.121L26,21l-3-3h-5.281l2.668,4.707l4.188,1.122l-0.776,2.897l-2.898-0.776l-0.56,0.323l-0.776,2.897l-2.897-0.776   l1.122-4.187l-2.668-4.622l-2.668,4.621l1.122,4.187l-2.897,0.776l-0.777-2.898l-0.56-0.324l-2.897,0.776l-0.776-2.897l4.189-1.123   L12.523,18H7l-3,3l-2-1.97l2-2.12v-0.647l-2-2.121l2-2.121L7,15h5.523l-2.668-4.536L5.667,9.342l0.776-2.897l2.897,0.776   l0.56-0.323L10.677,4l2.897,0.776l-1.122,4.187l2.668,4.622l2.668-4.621l-1.122-4.189L19.564,4L20.341,6.898z M19.305,3.034   l-2.897,0.776c-0.534,0.143-0.85,0.691-0.707,1.225l1.015,3.788l-1.595,2.762l-1.595-2.763l1.015-3.787   c0.069-0.256,0.033-0.529-0.1-0.759s-0.351-0.397-0.607-0.466l-2.897-0.776C10.849,3.011,10.762,3,10.677,3   c-0.442,0-0.846,0.295-0.965,0.741L9.075,6.115L6.702,5.479C6.616,5.456,6.529,5.444,6.443,5.444c-0.442,0-0.846,0.295-0.965,0.741   L4.701,9.083c-0.069,0.256-0.033,0.529,0.1,0.759s0.351,0.397,0.607,0.466L9.2,11.324L10.774,14H7.412l-2.708-2.69   C4.517,11.124,4.264,11.02,4,11.02c-0.005,0-0.011,0-0.016,0c-0.27,0.004-0.526,0.118-0.711,0.314l-2,2.121   c-0.363,0.385-0.363,0.987,0,1.372l1.658,1.759l-1.658,1.758C0.9,18.74,0.911,19.361,1.298,19.742l2,1.97   C3.493,21.904,3.747,22,4,22c0.256,0,0.512-0.098,0.707-0.293L7.414,19h3.392l-1.614,2.847l-3.785,1.015   c-0.533,0.143-0.85,0.691-0.707,1.225l0.776,2.897c0.069,0.256,0.236,0.475,0.466,0.607c0.153,0.089,0.326,0.134,0.5,0.134   c0.087,0,0.174-0.011,0.259-0.034l2.373-0.636l0.636,2.374c0.12,0.447,0.524,0.741,0.965,0.741c0.086,0,0.173-0.011,0.259-0.034   l2.897-0.776c0.256-0.069,0.475-0.236,0.607-0.466s0.169-0.503,0.1-0.759l-1.015-3.787l1.595-2.762l1.595,2.763l-1.015,3.787   c-0.143,0.533,0.174,1.082,0.707,1.225l2.898,0.776c0.085,0.023,0.172,0.034,0.259,0.034c0.174,0,0.347-0.045,0.5-0.134   c0.23-0.133,0.397-0.351,0.466-0.607l0.636-2.373l2.373,0.636c0.087,0.023,0.174,0.034,0.259,0.034   c0.442,0,0.846-0.295,0.965-0.741l0.776-2.897c0.069-0.256,0.033-0.529-0.1-0.759c-0.133-0.23-0.351-0.397-0.607-0.466   l-3.783-1.014L19.435,19h3.151l2.707,2.707C25.488,21.903,25.744,22,26,22c0.254,0,0.507-0.096,0.702-0.288l2-1.971   c0.387-0.382,0.399-1.003,0.026-1.398l-1.658-1.759l1.658-1.758c0.363-0.385,0.363-0.987,0-1.372l-2-2.121   c-0.185-0.196-0.442-0.309-0.711-0.314c-0.005,0-0.011,0-0.016,0c-0.264,0-0.517,0.104-0.705,0.291L22.588,14h-3.12l1.574-2.675   l3.793-1.017c0.533-0.143,0.85-0.691,0.707-1.225l-0.776-2.897c-0.069-0.256-0.236-0.475-0.466-0.607   c-0.153-0.089-0.326-0.134-0.5-0.134c-0.087,0-0.174,0.011-0.259,0.034l-2.373,0.636L20.53,3.741C20.41,3.295,20.006,3,19.565,3   C19.565,3,19.392,3.011,19.305,3.034z" style="fill: #265AA5;"/>
</g>
<metadata><work rdf:about=""><format>image/svg+xml</format><type rdf:resource="http://purl.org/dc/dcmitype/StillImage"/><license rdf:resource="http://creativecommons.org/licenses/by/4.0/"/><attributionname>Carol Liao</attributionname><attributionurl>http://www.toicon.com/icons/hatch_snow</attributionurl></work></metadata></svg>
